<svg width="448" height="393" viewBox="0 0 448 393" fill="none" xmlns="http://www.w3.org/2000/svg">
<mask id="mask0_52_4547" style="mask-type:luminance" maskUnits="userSpaceOnUse" x="88" y="33" width="326" height="326">
<path d="M409.152 234.641C430.386 147.504 376.933 59.6581 289.762 38.4325C202.591 17.2068 114.712 70.6387 93.4782 157.776C72.2443 244.913 125.697 332.759 212.868 353.984C300.039 375.21 387.918 321.778 409.152 234.641Z" fill="white"/>
</mask>
<g mask="url(#mask0_52_4547)">
<path d="M409.152 234.641C430.386 147.504 376.933 59.6581 289.762 38.4325C202.591 17.2068 114.712 70.6387 93.4782 157.776C72.2443 244.913 125.697 332.759 212.868 353.984C300.039 375.21 387.918 321.778 409.152 234.641Z" fill="url(#paint0_radial_52_4547)"/>
<g style="mix-blend-mode:overlay" opacity="0.6">
<path d="M204.704 41.9366C194.927 46.7638 191.81 46.6449 192.096 45.3846C192.833 42.2457 211.436 35.207 214.885 35.9204C214.909 35.9442 214.956 35.9917 214.98 36.0155C214.838 36.9667 205.108 41.7463 204.68 41.9604" fill="white"/>
<path d="M214.457 44.4572C207.416 49.76 202.896 50.4496 202.896 48.5948C202.896 44.9803 217.549 37.4661 220.975 37.7752C222.402 38.3934 214.528 44.3859 214.457 44.4572Z" fill="white"/>
<path d="M226.304 46.098C222.164 51.8764 217.121 53.208 216.431 50.735C215.408 47.1205 225.376 39.0593 228.659 39.0831C230.538 39.5586 227.065 45.0517 226.327 46.098" fill="white"/>
<path d="M239.387 46.7876C238.578 52.4946 233.892 54.4683 231.87 52.0904C228.944 48.6661 234.368 39.9391 237.318 39.7251C239.316 40.0342 239.72 44.4096 239.387 46.7638" fill="white"/>
<path d="M252.875 46.4071C255.064 51.4246 252.233 53.8738 249.283 52.7324C243.86 50.6636 243.622 40.4623 246.191 39.7251C246.262 39.7251 246.381 39.7013 246.453 39.6776C248.617 39.8202 251.757 43.8152 252.875 46.3833" fill="white"/>
<path d="M173.779 62.5295C165.809 68.736 159.101 69.7585 159.719 66.0489C160.623 60.5083 176.086 51.6386 180.701 52.9464C183.175 54.4445 176.371 60.5083 173.779 62.5295Z" fill="white"/>
<path d="M191.786 67.1903C185.459 74.2528 177.537 75.7509 177.133 71.3755C176.609 65.7873 189.289 56.5133 194.665 57.2505C198.162 58.4157 194.237 64.4319 191.786 67.1665" fill="white"/>
<path d="M213.648 70.2103C209.628 78.0099 200.826 79.9598 199.161 74.9424C197.377 69.5682 205.941 59.9376 212.268 60.2229C216.741 61.1028 215.123 67.333 213.648 70.2103Z" fill="white"/>
<path d="M237.793 71.4468C236.699 79.4367 228.159 82.1 224.519 77.249C220.642 72.0888 225.685 61.9351 232.227 61.721C236.866 62.1966 238.293 67.8086 237.817 71.4468" fill="white"/>
<path d="M262.676 70.781C264.389 77.7959 258.252 81.4579 252.947 78.5331C246.096 74.7759 246.453 63.6709 251.948 61.8637C252.304 61.7448 252.804 61.6735 253.161 61.6497C257.942 61.7448 261.749 67.0238 262.676 70.781Z" fill="white"/>
<path d="M146.993 89.9234C139.856 97.937 131.792 98.7693 131.697 93.2763C131.601 86.3327 144.423 75.4893 150.49 77.3916C154.224 79.4605 150.323 86.1662 146.969 89.9234" fill="white"/>
<path d="M172.137 96.4152C166.309 105.356 156.151 106.617 154.676 100.434C152.987 93.3476 163.787 82.6469 171.423 83.8359C176.538 85.4053 174.92 92.1586 172.137 96.4152Z" fill="white"/>
<path d="M202.658 100.648C198.756 110.493 186.91 112.157 184.008 105.285C181.034 98.2937 189.55 87.807 197.805 88.2826C204.085 89.424 204.418 96.2011 202.658 100.648Z" fill="white"/>
<path d="M236.39 102.384C235.153 111.586 223.282 115.486 218.001 108.448C213.363 102.289 218.287 90.7081 227.683 90.5416C234.701 91.1837 237.008 97.8657 236.39 102.384Z" fill="white"/>
<path d="M271.145 101.456C272.287 110.112 262.367 115.153 255.064 109.613C247.047 103.549 250.235 91.7306 258.109 90.5179C258.394 90.4703 258.775 90.4465 259.06 90.4227C266.316 90.4941 270.55 97.0572 271.145 101.456Z" fill="white"/>
<path d="M125.321 122.786C120.04 131.299 111.119 133.321 109.43 126.401C107.527 118.696 117.495 105.309 125.393 107.877C130.174 110.397 128.223 118.102 125.321 122.786Z" fill="white"/>
<path d="M156.223 130.753C151.75 140.193 140.356 142.714 136.882 135.033C133.362 127.257 141.997 114.44 152.083 116.081C158.792 118.078 158.554 125.854 156.223 130.753Z" fill="white"/>
<path d="M193.761 135.96C190.621 146.09 177.061 149.229 172.113 140.954C167.57 133.392 174.73 121.051 185.768 121.764C193.88 123.167 195.331 130.895 193.785 135.936" fill="white"/>
<path d="M235.224 138.1C233.845 148.444 220.023 152.63 213.125 144.782C206.845 137.625 212.03 124.831 223.877 124.665C232.822 125.426 235.89 132.988 235.224 138.1Z" fill="white"/>
<path d="M277.949 136.935C278.472 147.351 265.269 152.606 256.848 145.329C249.212 138.719 252.043 125.592 263.913 124.499C273.143 124.546 277.663 131.799 277.925 136.935" fill="white"/>
<path d="M109.811 159.668C106.148 168.871 97.3697 171.035 94.1583 163.497C90.5186 154.936 97.7503 140.122 106.433 143.047C112.166 145.971 111.857 154.532 109.811 159.668Z" fill="white"/>
<path d="M144.828 168.728C141.402 179.263 128.58 181.403 124.06 172.176C119.85 163.568 126.891 150.846 137.453 152.63C145.399 154.936 146.541 163.449 144.804 168.728" fill="white"/>
<path d="M187.386 174.602C184.864 185.374 170.353 188.584 163.882 179.809C157.816 171.606 164.216 158.36 176.657 159.216C186.149 160.833 188.646 169.18 187.386 174.602Z" fill="white"/>
<path d="M234.368 177.027C232.869 188.679 216.431 192.603 208.89 183.115C202.682 175.291 208.201 162.688 220.999 162.569C231.394 163.425 235.082 171.534 234.368 177.027Z" fill="white"/>
<path d="M282.801 175.719C282.587 187.466 266.387 192.674 257.681 183.804C250.354 176.338 254.398 163.544 267.601 162.379C278.258 162.379 282.92 170.179 282.801 175.719Z" fill="white"/>
<path d="M101.461 199.237C99.7485 208.345 92.3741 210.984 87.6164 204.207C81.0983 194.909 85.404 179.025 93.849 181.236C94.1107 181.308 94.4437 181.45 94.7054 181.522C101.057 184.708 102.484 193.792 101.461 199.213" fill="white"/>
<path d="M138.69 208.868C136.835 219.212 125.321 221.851 118.803 213.41C111.667 204.136 116.948 190.581 127.248 191.747C127.605 191.794 128.081 191.889 128.414 191.937C137.144 194.434 139.666 203.327 138.667 208.844" fill="white"/>
<path d="M183.912 215.122C182.081 226.797 166.285 229.485 159.053 219.331C152.821 210.58 158.126 198.215 171.019 199.118C181.391 200.854 184.816 209.51 183.936 215.122" fill="white"/>
<path d="M233.868 217.69C232.393 229.508 215.408 233.432 207.13 223.873C199.993 215.621 205.203 202.852 219.191 202.757C230.49 203.66 234.582 212.031 233.868 217.69Z" fill="white"/>
<path d="M285.371 216.311C284.348 228.7 265.65 233.622 257.586 223.611C251.282 215.788 256.277 203.732 269.813 202.566C281.327 202.566 285.846 210.604 285.371 216.311Z" fill="white"/>
<path d="M265.127 45.0517C269.099 48.9515 268.885 51.7813 266.054 51.7337C265.483 51.7337 262.462 51.4483 258.656 47.3107C256.158 44.5761 253.66 40.058 254.541 39.1782C254.636 39.0831 254.826 39.0355 254.945 39.0117C257.062 38.9642 262.319 42.3171 265.127 45.0755" fill="white"/>
<path d="M275.689 42.7451C281.017 45.9077 282.73 48.6186 280.946 49.0942C279.471 49.4747 276.141 48.2381 272.43 45.9315C268.314 43.3634 261.867 38.3221 262.534 37.6563C262.581 37.6087 262.652 37.6087 262.7 37.585C264.437 37.3947 271.24 40.1056 275.689 42.7451Z" fill="white"/>
<path d="M283.039 39.7964C289.51 42.4597 292.65 44.9803 291.413 45.5986C288.939 46.8351 268.719 37.1094 268.29 35.7777C268.29 35.7539 268.338 35.7302 268.362 35.6826C269.694 35.3973 277.187 37.3709 283.039 39.7727" fill="white"/>
<path d="M286.845 36.4198C294.601 38.7501 298.549 41.1519 297.336 41.5799C295.528 42.2219 273.072 34.779 271.645 33.5425C271.645 33.5187 271.645 33.4711 271.645 33.4473C272.477 33.0907 280.161 34.3985 286.845 36.396" fill="white"/>
<path d="M286.869 32.8529C292.935 34.1845 298.383 36.0631 299.001 37.0618C297.693 38.227 272.62 31.2596 272.453 31.0932C273.381 30.6889 280.542 31.4736 286.869 32.8529Z" fill="white"/>
<path d="M285.228 68.2841C288.986 74.3479 285.632 78.3428 280.351 77.249C272.168 75.5606 266.744 63.6947 271.05 60.6034C271.573 60.2229 272.144 60.1278 272.596 60.0327C277.33 59.7473 282.968 64.6459 285.228 68.2841Z" fill="white"/>
<path d="M304.734 64.0039C310.087 69.2829 309.421 73.3492 305.282 73.1827C297.574 72.8736 286.536 59.9614 289.676 57.1554C289.867 56.9889 290.2 56.8701 290.438 56.7749C294.315 56.1804 301.333 60.6748 304.734 64.0039Z" fill="white"/>
<path d="M318.27 58.5584C324.598 63.1002 326.073 66.8811 323.432 67.4518C318.556 68.4981 300.524 55.3244 303.141 52.6373C303.212 52.566 303.331 52.5184 303.402 52.4471C305.971 51.6623 313.37 55.039 318.27 58.5584Z" fill="white"/>
<path d="M325.335 52.3282C332.543 56.442 335.802 60.4132 333.423 60.7936C329.712 61.3643 310.039 49.546 311.015 47.3583C312.489 46.4071 319.912 49.2369 325.335 52.3282Z" fill="white"/>
<path d="M325.335 45.7413C332.282 49.0942 337.396 52.9702 336.302 53.5171C334.732 54.3019 313.893 43.9578 312.823 41.8652C312.823 41.8177 312.823 41.7701 312.823 41.7226C313.75 41.1281 319.697 43.0542 325.311 45.7651" fill="white"/>
<path d="M317.794 39.2257C323.884 41.889 330.093 45.3133 330.926 46.1218C330.902 46.1218 330.854 46.1693 330.83 46.1931C329.998 46.0029 310.253 37.4661 308.398 36.2771C308.327 36.2058 308.208 36.1106 308.16 36.0393C308.969 35.7064 313.727 37.4423 317.818 39.202" fill="white"/>
<path d="M305.638 33.9705L311.728 36.3722C306.733 34.2796 302.118 32.7102 297.669 31.1883C297.408 31.0932 297.146 30.9981 296.86 30.903C299.501 31.8066 303.045 32.948 305.638 33.9467" fill="white"/>
<path d="M302.641 97.9608C306.114 106.783 298.002 111.539 290.295 107.853C280.827 103.335 279.661 91.0648 286.465 88.4253C286.964 88.235 287.654 88.0924 288.178 87.9972C295.243 87.4979 300.881 93.5378 302.641 97.9608Z" fill="white"/>
<path d="M329.879 91.9922C334.446 98.9358 331.806 104.809 324.86 103.216C314.987 100.933 308.469 87.0936 313.655 83.6694C313.988 83.4554 314.512 83.2652 314.916 83.1225C320.53 82.1713 327.143 87.8308 329.879 91.9922Z" fill="white"/>
<path d="M348.791 84.3828C354.191 90.4465 354.571 96.2487 349.576 95.8444C341.012 95.1786 330.117 79.9598 333.899 76.8923C334.018 76.7972 334.208 76.702 334.327 76.6307C338.3 75.2991 345.318 80.4592 348.791 84.3828Z" fill="white"/>
<path d="M358.639 75.6795C364.61 81.1963 367.322 86.9747 363.92 86.9272C359.353 86.8558 343.557 72.7071 345.746 68.9975C347.768 67.4756 354.548 71.8986 358.663 75.6795" fill="white"/>
<path d="M358.663 66.4769C364.682 71.3992 369.606 77.0112 368.06 77.2014C366.252 77.4392 349.742 64.2654 348.458 60.7461C348.41 59.2242 353.81 62.5057 358.687 66.4769" fill="white"/>
<path d="M360.471 66.6196C358.592 65.0026 353.001 60.3894 341.797 52.4233C341.583 52.2806 341.416 52.0904 341.155 51.9953C349.941 58.1938 356.379 63.0685 360.471 66.6196Z" fill="white"/>
<path d="M316.7 132.655C318.912 142.357 308.398 148.73 299.097 143.332C289.486 137.744 290.057 123.928 300.001 121.598C300.334 121.526 300.809 121.455 301.142 121.384C309.944 120.718 315.534 127.566 316.7 132.631" fill="white"/>
<path d="M350.194 125.331C353.905 134.367 347.863 141.239 339.418 137.577C328.951 133.035 327.001 118.459 334.399 115.486C334.66 115.391 335.017 115.296 335.279 115.201C342.201 113.941 348.172 120.361 350.218 125.331" fill="white"/>
<path d="M373.436 115.962C377.979 124.047 375.791 131.157 369.368 129.088C361.351 126.472 353.382 110.778 360.019 106.926C364.801 105.237 370.748 111.206 373.436 115.986" fill="white"/>
<path d="M385.544 105.261C390.516 112.585 391.634 119.457 387.709 118.649C382.475 117.579 371.652 101.575 374.578 97.1523C376.956 95.2024 382.523 100.838 385.544 105.261Z" fill="white"/>
<path d="M385.568 93.9421C390.421 100.363 394.227 106.854 393.204 107.068C391.824 107.354 379.407 91.3264 378.027 86.618C377.979 86.2613 377.908 85.7382 378.883 86.4278C380.192 87.379 382.808 90.3276 385.544 93.9421" fill="white"/>
<path d="M326.715 170.868C327.809 182.568 312.941 189.036 303.664 180.88C295.861 174.031 298.359 160.976 310.872 158.765C321.529 157.909 326.239 165.732 326.715 170.845" fill="white"/>
<path d="M364.658 162.546C366.823 172.913 358.116 180.356 349.647 175.41C340.845 170.25 339.918 154.889 350.551 151.56C358.853 150.014 363.611 157.481 364.658 162.546Z" fill="white"/>
<path d="M391.016 151.94C393.942 161.571 389.612 169.394 383.142 166.113C375.815 162.379 372.008 146.066 379.359 141.905C384.712 139.955 389.398 146.59 391.016 151.94Z" fill="white"/>
<path d="M404.742 139.813C408.096 148.73 407.596 156.482 403.742 154.651C398.913 152.344 392.871 135.39 396.297 130.562C399.008 128.184 402.91 134.985 404.742 139.813Z" fill="white"/>
<path d="M408.571 136.365L409.547 139.123C410.26 141.287 410.284 141.596 410.284 141.905C410.237 141.905 410.189 141.929 410.141 141.953C408.357 139.955 401.482 123.096 400.317 118.364C400.293 118.197 400.245 118.007 400.245 117.84C400.269 117.84 400.317 117.793 400.364 117.793C400.555 118.007 400.721 118.197 401.601 119.957C403.766 124.855 406.764 131.371 408.595 136.388" fill="white"/>
<path d="M332.044 211.127C331.615 223.112 315.582 229.699 306.852 221.518C299.311 214.456 303.355 200.949 316.843 198.619C328.309 197.668 332.258 205.777 332.067 211.127" fill="white"/>
<path d="M372.389 202.305C372.627 213.719 361.637 221.352 354.048 215.074C346.697 209.011 348.862 194.22 359.971 190.796C368.821 189.107 372.294 196.954 372.413 202.281" fill="white"/>
<path d="M400.412 191.01C401.173 201.805 394.798 210.033 389.255 205.467C383.379 200.64 383.617 184.542 391.277 180.309C397.224 178.097 400.055 185.707 400.412 191.01Z" fill="white"/>
<path d="M414.994 178.121C416.089 187.799 414.233 195.956 411.355 193.982C407.572 191.366 405.669 173.318 409.666 167.991C412.425 165.47 414.4 172.866 414.994 178.121Z" fill="white"/>
<path d="M101.033 237.593C101.152 245.726 95.6569 248.437 90.138 242.944C82.5256 235.382 81.5979 219.783 88.7344 219.45C89.6622 219.402 90.5424 219.711 91.2322 219.949C97.8455 223.207 100.938 232.243 101.033 237.593Z" fill="white"/>
<path d="M138.357 247.248C138.024 256.95 127.534 259.256 119.945 251.29C111.881 242.825 113.95 230.269 123.418 230.317C124.132 230.317 125.06 230.483 125.749 230.602C134.742 233.147 138.548 241.874 138.357 247.248Z" fill="white"/>
<path d="M183.698 253.502C182.818 264.274 167.736 266.628 159.577 257.259C152.416 249.007 156.46 236.999 169.306 237.926C179.964 239.686 184.127 248.08 183.698 253.502Z" fill="white"/>
<path d="M233.797 256.094C232.393 267.65 214.505 270.742 206.44 260.802C200.089 252.979 205.298 241.731 218.62 241.66C230.181 242.563 234.439 250.648 233.797 256.094Z" fill="white"/>
<path d="M285.394 254.691C283.586 266.39 265.293 270.908 257.395 261.587C251.186 254.239 256.872 242.587 270.384 241.446C282.135 241.446 286.227 249.174 285.371 254.691" fill="white"/>
<path d="M108.598 274.261C110.073 280.016 107.599 282.75 103.103 280.325C94.515 275.735 87.3547 259.256 93.397 257.972C94.4199 257.758 95.3477 258.091 96.2992 258.424C102.793 261.539 107.408 269.553 108.622 274.237" fill="white"/>
<path d="M143.9 283.369C144.994 291.097 136.906 293.213 128.985 287.268C119.874 280.42 118.327 269.172 126.415 268.459C127.605 268.364 128.723 268.554 129.651 268.721C138.405 271.122 143.258 278.732 143.924 283.369" fill="white"/>
<path d="M186.767 289.29C186.862 298.302 173.279 300.086 164.763 292.191C157.293 285.271 159.648 276.163 169.045 275.688C169.853 275.64 170.924 275.712 171.709 275.783C182.033 277.424 186.719 284.653 186.767 289.29Z" fill="white"/>
<path d="M234.106 291.739C232.845 301.964 215.123 303.962 207.772 294.711C202.967 288.671 206.25 279.421 219.31 279.397C230.467 280.206 234.677 287.102 234.106 291.739Z" fill="white"/>
<path d="M282.897 290.431C280.375 300.537 261.772 304.009 255.611 295.52C251.496 289.837 255.992 280.277 269.313 279.207C280.613 279.136 284.038 285.723 282.873 290.407" fill="white"/>
<path d="M123.418 305.412C125.749 309.478 125.321 311.69 122.395 310.763C115.449 308.575 103.079 293.57 106.623 291.644C107.385 291.216 108.669 291.691 109.43 291.977C115.354 294.735 121.182 301.489 123.418 305.412Z" fill="white"/>
<path d="M154.748 313.497C156.746 318.729 152.749 320.821 146.208 317.968C136.621 313.782 129.889 303.343 135.455 301.322C136.906 300.799 138.69 301.132 139.737 301.322C147.706 303.462 153.32 309.74 154.748 313.521" fill="white"/>
<path d="M192.786 318.752C193.785 325.886 182.58 327.123 174.064 320.797C166.856 315.447 167.07 308.599 174.468 307.695C175.753 307.528 176.966 307.647 177.965 307.719C187.338 309.169 192.286 315.019 192.809 318.729" fill="white"/>
<path d="M234.796 320.916C233.773 329.287 217.335 330.333 211.008 322.438C206.868 317.23 210.484 310.977 221.189 311C231.323 311.69 235.224 317.23 234.772 320.916" fill="white"/>
<path d="M278.091 319.751C274.808 328.502 256.23 330.499 252.947 322.438C251.186 318.158 255.564 311.666 266.649 310.834C276.878 310.739 279.495 315.994 278.091 319.751Z" fill="white"/>
<path d="M144.495 330.095C145.542 331.07 148.801 334.233 147.159 334.09C143.163 333.757 126.011 320.678 127.629 319.18C127.962 318.871 129.008 319.299 129.627 319.537C134.742 321.844 141.331 327.123 144.495 330.095Z" fill="white"/>
<path d="M170.186 336.73C172.375 339.559 171.709 341.105 168.497 340.582C160.909 339.369 148.396 329.738 151.536 327.527C152.464 326.885 154.201 327.218 155.247 327.432C162.265 329.263 168.141 334.09 170.186 336.73Z" fill="white"/>
<path d="M201.373 341.034C202.991 345.457 196.259 346.574 188.742 343.126C181.272 339.702 178.417 334.542 183.175 333.091C184.721 332.616 186.505 332.782 187.576 332.877C195.474 334.043 200.398 338.347 201.373 341.034Z" fill="white"/>
<path d="M235.819 342.817C235.129 348.714 221.046 349 216.027 343.245C213.22 340.035 214.98 335.588 224.186 335.659C232.75 336.206 236.152 340.178 235.843 342.841" fill="white"/>
<path d="M271.312 341.842C267.482 348.334 251.876 349.428 250.449 343.316C249.783 340.439 253.637 336.111 262.605 335.493C271.264 335.374 272.929 339.131 271.312 341.842Z" fill="white"/>
<path d="M170.805 347.335C174.088 348.881 175.539 349.428 175.801 349.547C163.978 344.696 163.502 344.505 157.222 341.295C155.104 340.201 154.819 339.94 154.676 339.821C154.795 339.773 154.819 339.773 155.771 340.154C160.885 342.365 165.762 344.981 170.805 347.335Z" fill="white"/>
<path d="M189.455 352.162C191.739 353.47 191.953 353.827 192.048 353.993C192.024 354.041 192.001 354.088 191.977 354.136C188.86 354.683 172.018 347.573 173.017 346.122C173.279 345.742 174.635 346.027 175.372 346.17C181.653 347.739 188.694 351.687 189.455 352.139" fill="white"/>
<path d="M212.102 355.277C213.363 356.585 212.768 357.299 210.532 357.227C204.704 357.013 193.785 352.495 196.235 350.688C197.091 350.07 199.161 350.26 200.041 350.355C206.178 351.211 210.675 353.851 212.078 355.301" fill="white"/>
<path d="M237.127 356.585C236.794 359.938 224.519 359.249 221.879 355.729C220.832 354.326 222.045 352.4 228.04 352.471C234.487 352.852 237.27 355.159 237.127 356.585Z" fill="white"/>
<path d="M262.89 355.872C259.037 359.201 247.523 359.7 247.69 356.538C247.761 355.087 250.901 352.781 257.395 352.353C263.533 352.234 264.508 354.16 263.223 355.563C263.128 355.658 262.986 355.801 262.89 355.896" fill="white"/>
<path d="M198.947 356.585L199.232 356.657C200.493 356.942 202.182 357.323 203.966 357.679L198.947 356.585Z" fill="white"/>
<path d="M332.186 249.531C330.164 261.373 312.68 267.318 305.472 258.614C300.31 252.384 304.687 239.805 318.484 237.451C330.117 236.476 333.067 244.347 332.163 249.531" fill="white"/>
<path d="M372.627 240.661C370.724 252.051 358.164 259.209 352.288 252.289C347.149 246.249 351.883 232.695 362.612 229.413C371.081 227.772 373.578 235.001 372.627 240.637" fill="white"/>
<path d="M400.721 229.342C399.032 240.233 391.087 248.199 387.233 242.872C383.427 237.641 387.114 222.779 394.679 218.689C400.317 216.549 401.625 223.635 400.745 229.342" fill="white"/>
<path d="M415.327 216.43C414.09 225.941 410.998 233.789 409.238 232.005C406.882 229.627 409.309 211.412 413.472 206.086C415.47 204.183 415.779 207.964 415.779 210.414C415.779 212.078 415.613 214.29 415.351 216.453" fill="white"/>
<path d="M327.119 285.533C323.48 296.162 305.757 301.037 300.786 292.762C297.55 287.387 302.974 277.448 315.772 275.331C326.929 274.332 328.666 281.062 327.119 285.533Z" fill="white"/>
<path d="M365.371 277.162C361.232 287.53 348.077 293.713 344.652 286.888C341.916 281.419 348.553 270.504 358.378 267.603C366.918 265.891 367.179 272.549 365.348 277.162" fill="white"/>
<path d="M391.919 266.462C387.899 276.068 379.549 283.155 377.527 278.684C375.505 274.214 382 261.087 389.327 257.235C394.655 255.143 394.06 261.373 391.919 266.485" fill="white"/>
<path d="M405.741 254.239C402.315 262.681 398.2 269.838 397.581 268.411C396.725 266.462 403.362 250.078 407.501 245.036C407.929 244.608 408.524 243.99 408.571 244.941C408.643 246.154 407.525 249.792 405.741 254.239Z" fill="white"/>
<path d="M317.342 315.399C312.394 324.055 295.528 327.812 293.245 320.774C291.912 316.612 297.455 309.122 308.826 307.291C317.842 306.435 319.935 310.834 317.319 315.399" fill="white"/>
<path d="M351.289 307.98C345.46 316.351 333.352 321.511 331.972 316.208C330.807 311.761 338.467 302.915 347.578 300.276C354.881 298.754 354.143 303.866 351.289 307.98Z" fill="white"/>
<path d="M374.839 298.492C369.297 305.911 361.232 311.975 360.495 309.288C359.686 306.435 368.226 294.688 375.696 290.859C378.883 289.551 378.693 291.454 377.979 293.285C377.599 294.26 376.742 295.948 374.863 298.469" fill="white"/>
<path d="M379.502 297.636L378.241 299.134C377.694 299.776 377.575 299.872 377.408 299.99C377.527 299.087 388.708 283.797 392.181 279.802C392.538 279.421 392.609 279.35 392.752 279.255C392.752 279.445 392.752 279.516 392.062 280.586C388.423 285.794 383.546 292.738 379.478 297.66" fill="white"/>
<path d="M303.497 338.299C298.193 343.887 284.015 347.621 283.372 342.437C282.992 339.464 288.749 333.995 298.288 332.521C306.162 331.736 306.043 335.16 304.045 337.657C303.878 337.847 303.664 338.109 303.474 338.299" fill="white"/>
<path d="M331.33 332.188C325.312 337.372 314.535 342.104 314.393 338.917C314.274 336.183 322.647 328.906 331.045 326.552C336.04 325.482 334.993 327.884 334.304 328.977C333.756 329.857 332.638 331.046 331.33 332.188Z" fill="white"/>
<path d="M350.646 324.412C345.437 328.621 337.467 333.828 336.73 333.163C336.73 331.783 348.482 321.701 354.833 318.586C355.475 318.324 356.808 317.754 356.403 318.729C356.07 319.49 354.381 321.392 350.67 324.412" fill="white"/>
<path d="M359.377 317.991L355.856 320.94C359.234 318.182 363.302 314.591 366.466 311.571L359.377 317.991Z" fill="white"/>
<path d="M286.251 353.304C281.089 356.062 270.717 358.345 271.074 356.205C271.335 354.707 277.116 351.187 284.657 350.07C289.867 349.523 289.034 351.069 288.653 351.568C288.273 352.067 287.369 352.709 286.251 353.304Z" fill="white"/>
<path d="M306.471 348.881C301.238 351.283 293.34 353.851 292.341 353.66C292.341 353.613 292.341 353.565 292.341 353.518C293.197 352.59 303.141 347.311 309.73 345.552C310.515 345.361 312.394 344.957 311.752 345.79C311.371 346.289 309.801 347.383 306.495 348.881" fill="white"/>
<path d="M309.016 348.405C315.487 345.789 321.577 342.389 327.881 339.44C328.356 339.226 328.475 339.179 328.69 339.084C328.547 339.211 328.333 339.353 328.047 339.512C316.105 345.528 315.891 345.647 309.016 348.405Z" fill="white"/>
</g>
<path style="mix-blend-mode:multiply" opacity="0.68" d="M409.152 234.641C430.386 147.504 376.933 59.6581 289.762 38.4325C202.591 17.2068 114.712 70.6387 93.4782 157.776C72.2443 244.913 125.697 332.759 212.868 353.984C300.039 375.21 387.918 321.778 409.152 234.641Z" fill="url(#paint1_radial_52_4547)"/>
<path style="mix-blend-mode:screen" opacity="0.3" d="M409.152 234.641C430.386 147.504 376.933 59.6581 289.762 38.4325C202.591 17.2068 114.712 70.6387 93.4782 157.776C72.2443 244.913 125.697 332.759 212.868 353.984C300.039 375.21 387.918 321.778 409.152 234.641Z" fill="url(#paint2_radial_52_4547)"/>
<g style="mix-blend-mode:overlay" opacity="0.56">
<path d="M297.492 283.409C357.876 257.488 385.806 187.543 359.875 127.182C333.945 66.8209 263.973 38.9014 203.588 64.8221C143.204 90.7428 115.274 160.688 141.205 221.049C167.135 281.41 237.107 309.329 297.492 283.409Z" fill="url(#paint3_radial_52_4547)"/>
</g>
</g>
<path style="mix-blend-mode:multiply" d="M174.016 349.618C227.646 349.618 271.121 309.3 271.121 259.565C271.121 209.831 227.646 169.513 174.016 169.513C120.387 169.513 76.9116 209.831 76.9116 259.565C76.9116 309.3 120.387 349.618 174.016 349.618Z" fill="url(#paint4_radial_52_4547)"/>
<mask id="mask1_52_4547" style="mask-type:luminance" maskUnits="userSpaceOnUse" x="28" y="209" width="153" height="153">
<path d="M169.769 324.839C191.404 288.789 179.708 242.034 143.644 220.408C107.581 198.781 60.8078 210.473 39.1731 246.523C17.5384 282.572 29.235 329.327 65.2982 350.954C101.361 372.58 148.135 360.888 169.769 324.839Z" fill="white"/>
</mask>
<g mask="url(#mask1_52_4547)">
<path d="M169.769 324.839C191.404 288.789 179.708 242.034 143.644 220.408C107.581 198.781 60.8078 210.473 39.1731 246.523C17.5384 282.572 29.235 329.327 65.2982 350.954C101.361 372.58 148.135 360.888 169.769 324.839Z" fill="url(#paint5_radial_52_4547)"/>
<path style="mix-blend-mode:multiply" opacity="0.68" d="M169.769 324.839C191.404 288.789 179.708 242.034 143.644 220.408C107.581 198.781 60.8078 210.473 39.1731 246.523C17.5384 282.572 29.235 329.327 65.2982 350.954C101.361 372.58 148.135 360.888 169.769 324.839Z" fill="url(#paint6_radial_52_4547)"/>
<path style="mix-blend-mode:screen" opacity="0.3" d="M169.769 324.839C191.404 288.789 179.708 242.034 143.644 220.408C107.581 198.781 60.8078 210.473 39.1731 246.523C17.5384 282.572 29.235 329.327 65.2982 350.954C101.361 372.58 148.135 360.888 169.769 324.839Z" fill="url(#paint7_radial_52_4547)"/>
<g style="mix-blend-mode:overlay" opacity="0.68">
<path d="M101.107 334.835C131.787 332.163 154.49 305.135 151.817 274.468C149.144 243.8 122.106 221.106 91.4265 223.778C60.7472 226.45 38.0438 253.477 40.7171 284.145C43.3904 314.812 70.4281 337.507 101.107 334.835Z" fill="url(#paint8_radial_52_4547)"/>
</g>
<path style="mix-blend-mode:screen" opacity="0.3" d="M169.769 324.839C191.404 288.789 179.708 242.034 143.644 220.408C107.581 198.781 60.8078 210.473 39.1731 246.523C17.5384 282.572 29.235 329.327 65.2982 350.954C101.361 372.58 148.135 360.888 169.769 324.839Z" fill="url(#paint9_radial_52_4547)"/>
</g>
<defs>
<radialGradient id="paint0_radial_52_4547" cx="0" cy="0" r="1" gradientUnits="userSpaceOnUse" gradientTransform="translate(255.005 183.456) scale(157.1 157.039)">
<stop stop-color="white"/>
<stop offset="0.04" stop-color="#F8E9DA"/>
<stop offset="0.1" stop-color="#F0CFAC"/>
<stop offset="0.17" stop-color="#E9B785"/>
<stop offset="0.23" stop-color="#E3A564"/>
<stop offset="0.3" stop-color="#DE964B"/>
<stop offset="0.37" stop-color="#DB8C39"/>
<stop offset="0.44" stop-color="#D9852F"/>
<stop offset="0.53" stop-color="#D9842C"/>
<stop offset="0.98" stop-color="#DB8C42"/>
</radialGradient>
<radialGradient id="paint1_radial_52_4547" cx="0" cy="0" r="1" gradientUnits="userSpaceOnUse" gradientTransform="translate(242.944 155.801) scale(202.916 202.838)">
<stop stop-color="white" stop-opacity="0"/>
<stop offset="0.15" stop-color="#F9EFE5" stop-opacity="0.0144"/>
<stop offset="0.46" stop-color="#EBC9A5" stop-opacity="0.1764"/>
<stop offset="0.91" stop-color="#D68C3F" stop-opacity="0.81"/>
<stop offset="1" stop-color="#D2802B"/>
</radialGradient>
<radialGradient id="paint2_radial_52_4547" cx="0" cy="0" r="1" gradientUnits="userSpaceOnUse" gradientTransform="translate(251.318 194.68) scale(160.192 160.13)">
<stop stop-color="white" stop-opacity="0"/>
<stop offset="0.71" stop-color="white" stop-opacity="0"/>
<stop offset="0.83" stop-color="white" stop-opacity="0"/>
<stop offset="0.84" stop-color="white" stop-opacity="0.01"/>
<stop offset="0.86" stop-color="white" stop-opacity="0.01"/>
<stop offset="0.89" stop-color="white" stop-opacity="0.0324"/>
<stop offset="0.91" stop-color="white" stop-opacity="0.1089"/>
<stop offset="0.94" stop-color="white" stop-opacity="0.2601"/>
<stop offset="0.97" stop-color="white" stop-opacity="0.5329"/>
<stop offset="1" stop-color="white"/>
</radialGradient>
<radialGradient id="paint3_radial_52_4547" cx="0" cy="0" r="1" gradientUnits="userSpaceOnUse" gradientTransform="translate(252.038 69.6126) scale(155.839 155.779)">
<stop stop-color="white" stop-opacity="0.9801"/>
<stop offset="0.17" stop-color="white" stop-opacity="0.5329"/>
<stop offset="0.34" stop-color="white" stop-opacity="0.2601"/>
<stop offset="0.49" stop-color="white" stop-opacity="0.1089"/>
<stop offset="0.64" stop-color="white" stop-opacity="0.0324"/>
<stop offset="0.78" stop-color="white" stop-opacity="0.01"/>
<stop offset="0.9" stop-color="white" stop-opacity="0.01"/>
<stop offset="1" stop-color="white" stop-opacity="0"/>
</radialGradient>
<radialGradient id="paint4_radial_52_4547" cx="0" cy="0" r="1" gradientUnits="userSpaceOnUse" gradientTransform="translate(175.61 262.044) scale(86.067 80.0114)">
<stop offset="0.15" stop-color="#A56B26"/>
<stop offset="0.25" stop-color="#A8702D" stop-opacity="0.9216"/>
<stop offset="0.39" stop-color="#B17F44" stop-opacity="0.7396"/>
<stop offset="0.55" stop-color="#C09869" stop-opacity="0.4761"/>
<stop offset="0.73" stop-color="#D6BC9C" stop-opacity="0.2025"/>
<stop offset="0.91" stop-color="#F1E8DE" stop-opacity="0.0225"/>
<stop offset="1" stop-color="white" stop-opacity="0"/>
</radialGradient>
<radialGradient id="paint5_radial_52_4547" cx="0" cy="0" r="1" gradientUnits="userSpaceOnUse" gradientTransform="translate(104.506 286.548) rotate(-50.1191) scale(73.6088 73.6139)">
<stop stop-color="white"/>
<stop offset="0.09" stop-color="#FDFBF9"/>
<stop offset="0.22" stop-color="#FAF1E8"/>
<stop offset="0.36" stop-color="#F5E1CC"/>
<stop offset="0.52" stop-color="#EFCBA6"/>
<stop offset="0.68" stop-color="#E6AE75"/>
<stop offset="0.85" stop-color="#DB8C3A"/>
<stop offset="0.89" stop-color="#D9842C"/>
</radialGradient>
<radialGradient id="paint6_radial_52_4547" cx="0" cy="0" r="1" gradientUnits="userSpaceOnUse" gradientTransform="translate(87.3635 276.573) rotate(-50.1191) scale(95.085 95.0915)">
<stop stop-color="white" stop-opacity="0"/>
<stop offset="0.15" stop-color="#F9EFE5" stop-opacity="0.0144"/>
<stop offset="0.46" stop-color="#EBC9A5" stop-opacity="0.1764"/>
<stop offset="0.91" stop-color="#D68C3F" stop-opacity="0.81"/>
<stop offset="1" stop-color="#D2802B"/>
</radialGradient>
<radialGradient id="paint7_radial_52_4547" cx="0" cy="0" r="1" gradientUnits="userSpaceOnUse" gradientTransform="translate(103.883 285.253) rotate(-50.1191) scale(75.0596 75.0648)">
<stop stop-color="white" stop-opacity="0"/>
<stop offset="0.71" stop-color="white" stop-opacity="0"/>
<stop offset="0.83" stop-color="white" stop-opacity="0"/>
<stop offset="0.84" stop-color="white" stop-opacity="0.01"/>
<stop offset="0.86" stop-color="white" stop-opacity="0.01"/>
<stop offset="0.89" stop-color="white" stop-opacity="0.0324"/>
<stop offset="0.91" stop-color="white" stop-opacity="0.1089"/>
<stop offset="0.94" stop-color="white" stop-opacity="0.2601"/>
<stop offset="0.97" stop-color="white" stop-opacity="0.5329"/>
<stop offset="1" stop-color="white"/>
</radialGradient>
<radialGradient id="paint8_radial_52_4547" cx="0" cy="0" r="1" gradientUnits="userSpaceOnUse" gradientTransform="translate(59.0881 247.377) rotate(-50.1191) scale(73.038 73.0431)">
<stop stop-color="white" stop-opacity="0.9801"/>
<stop offset="0.17" stop-color="white" stop-opacity="0.5329"/>
<stop offset="0.34" stop-color="white" stop-opacity="0.2601"/>
<stop offset="0.49" stop-color="white" stop-opacity="0.1089"/>
<stop offset="0.64" stop-color="white" stop-opacity="0.0324"/>
<stop offset="0.78" stop-color="white" stop-opacity="0.01"/>
<stop offset="0.9" stop-color="white" stop-opacity="0.01"/>
<stop offset="1" stop-color="white" stop-opacity="0"/>
</radialGradient>
<radialGradient id="paint9_radial_52_4547" cx="0" cy="0" r="1" gradientUnits="userSpaceOnUse" gradientTransform="translate(103.883 285.253) rotate(-50.1191) scale(75.0596 75.0648)">
<stop stop-color="white" stop-opacity="0"/>
<stop offset="0.71" stop-color="white" stop-opacity="0"/>
<stop offset="0.83" stop-color="white" stop-opacity="0"/>
<stop offset="0.84" stop-color="white" stop-opacity="0.01"/>
<stop offset="0.86" stop-color="white" stop-opacity="0.01"/>
<stop offset="0.89" stop-color="white" stop-opacity="0.0324"/>
<stop offset="0.91" stop-color="white" stop-opacity="0.1089"/>
<stop offset="0.94" stop-color="white" stop-opacity="0.2601"/>
<stop offset="0.97" stop-color="white" stop-opacity="0.5329"/>
<stop offset="1" stop-color="white"/>
</radialGradient>
</defs>
</svg>
