<svg width="537" height="438" viewBox="0 0 537 438" fill="none" xmlns="http://www.w3.org/2000/svg">
<g clip-path="url(#clip0_52_4492)">
<path d="M293.994 56.0311C300.174 59.5991 308.072 57.4916 311.634 51.3216C315.197 45.1516 313.073 37.2579 306.893 33.6899C300.713 30.1219 292.815 32.2293 289.252 38.3993C285.69 44.5694 287.814 52.4631 293.994 56.0311Z" fill="#1DD5C2" stroke="black" stroke-width="0.882113"/>
<path d="M335.018 79.7164C341.198 83.2844 349.096 81.1769 352.659 75.0069C356.221 68.8369 354.097 60.9432 347.917 57.3752C341.737 53.8072 333.839 55.9146 330.277 62.0847C326.715 68.2547 328.838 76.1484 335.018 79.7164Z" fill="#FF00A6" stroke="black" stroke-width="0.882113"/>
<path d="M310.868 121.546C317.048 125.114 324.946 123.006 328.509 116.836C332.071 110.666 329.947 102.772 323.767 99.2045C317.587 95.6365 309.689 97.7439 306.127 103.914C302.564 110.084 304.688 117.978 310.868 121.546Z" fill="#F5861A" stroke="black" stroke-width="0.882113"/>
<path d="M309.114 91.701L309.496 91.9215L309.504 91.9072C312.458 93.3515 316.067 92.2859 317.734 89.3983L323.926 78.6746C325.666 75.66 324.629 71.8026 321.609 70.0591L305.738 60.8957L305.58 60.8046L305.404 60.8514L272.392 69.6295L271.36 69.9039L272.285 70.4377L309.114 91.701Z" fill="#1B36F6" stroke="black" stroke-width="0.882113"/>
<path d="M292.451 83.7921L292.671 83.4102L292.289 83.1896L270.822 70.7958L270.44 70.5752L270.22 70.9572L258.124 91.9083L257.903 92.2903L258.285 92.5108L279.752 104.905L280.134 105.125L280.354 104.743L292.451 83.7921Z" fill="#0922DA" stroke="black" stroke-width="0.882113"/>
</g>
<path d="M184.669 216.342L114.957 427.297C113.459 428.424 105.755 428.795 93.7706 424.836C81.7864 420.877 75.8477 415.955 75.2592 414.189L144.918 203.181L136.144 200.292L66.378 411.461C62.4725 423.231 84.0869 431.363 90.8281 433.61C97.5692 435.857 119.772 442.171 123.678 430.4L193.497 219.231L184.669 216.342Z" fill="#212529"/>
<path d="M445.595 308.096H214.309V317.352H445.381C446.879 318.422 449.661 329.924 449.661 342.551C449.661 355.177 446.879 366.626 445.381 367.75H214.309V377.005H445.595C458.007 377.005 458.97 349.613 458.97 342.551C458.97 335.489 458.012 308.096 445.595 308.096Z" fill="#212529"/>
<path d="M206.337 91.5239L247.266 80.3563L187.772 1L91.1069 27.3761L119.623 65.3619L124.492 51.0236C127.969 40.7514 149.958 38.9323 173.659 46.9575C197.36 54.9827 213.732 69.749 210.265 80.0212L206.337 91.5239Z" fill="#212529"/>
<path d="M471.435 259.625L415.332 195.705C419.902 190.468 423.297 184.313 425.289 177.655C427.281 170.996 427.825 163.988 426.883 157.102C425.938 150.217 423.529 143.613 419.819 137.736C416.108 131.859 411.183 126.845 405.373 123.03C396.613 117.285 386.234 114.52 375.777 115.145C365.32 115.771 355.344 119.754 347.332 126.502C342.018 130.981 337.724 136.546 334.74 142.823C323.719 165.995 331.237 197.203 361.919 209.378C369.04 212.086 376.709 213.042 384.277 212.167C391.846 211.291 399.093 208.61 405.409 204.349L461.538 268.283C462.702 269.54 464.311 270.294 466.022 270.383C467.733 270.473 469.412 269.891 470.701 268.762C471.99 267.634 472.788 266.046 472.925 264.338C473.062 262.63 472.528 260.936 471.435 259.616V259.625ZM365.45 203.409C357.36 200.717 350.281 195.626 345.154 188.814C340.027 182.002 337.095 173.791 336.747 165.272C336.398 156.754 338.651 148.331 343.205 141.123C347.758 133.915 354.398 128.264 362.241 124.92C370.084 121.577 378.758 120.699 387.112 122.404C395.465 124.109 403.102 128.316 409.008 134.465C414.913 140.615 418.807 148.416 420.172 156.832C421.537 165.248 420.309 173.88 416.65 181.58C412.24 190.832 404.604 198.155 395.177 202.174C385.749 206.194 375.178 206.633 365.45 203.409Z" fill="#212529"/>
<path d="M252.562 10.7367C249.245 13.1443 247.854 16.9316 249.465 19.1843C251.123 21.4369 255.136 21.2708 258.506 18.8098C261.824 16.4022 263.268 9.12605 263.268 9.12605C263.268 9.12605 255.879 8.27003 252.562 10.7367Z" fill="#212529"/>
<path d="M136.251 71.4077C151.568 82.2971 169.752 88.4373 188.536 89.0631C173.21 78.1887 155.031 72.05 136.251 71.4077Z" fill="#0922DA"/>
<path d="M364.327 240.203C364.161 239.739 363.862 239.334 363.467 239.038C363.073 238.742 362.6 238.569 362.108 238.539C361.447 238.506 360.8 238.736 360.308 239.178C359.816 239.62 359.518 240.239 359.48 240.899C359.463 241.226 359.51 241.553 359.618 241.862L372.718 279.58H318.51L304.83 240.203C304.598 239.605 304.143 239.119 303.561 238.847C302.979 238.576 302.314 238.54 301.706 238.747C301.098 238.955 300.594 239.389 300.299 239.959C300.004 240.53 299.94 241.192 300.122 241.808L368.015 437.355H373.312L364.69 412.531H418.886L427.509 437.355H432.805L364.327 240.203ZM319.588 282.683H373.796L395.256 344.477H341.054L319.588 282.683ZM363.614 409.428L342.129 347.58H396.346L417.825 409.428H363.614Z" fill="#0922DA"/>
<path d="M268.88 146.523L233.035 162.092L245.607 169.047L225.972 204.626L242.611 213.774L262.246 178.196L274.819 185.151L268.88 146.523Z" fill="#0922DA"/>
<path d="M364.327 240.204C364.16 239.74 363.862 239.335 363.467 239.039C363.073 238.743 362.6 238.569 362.108 238.54C361.447 238.507 360.8 238.736 360.308 239.178C359.816 239.62 359.518 240.239 359.481 240.9C359.463 241.227 359.51 241.554 359.619 241.863L372.718 279.581H318.51L304.831 240.204C304.598 239.605 304.144 239.119 303.561 238.848C302.979 238.576 302.315 238.541 301.707 238.748C301.099 238.955 300.594 239.389 300.299 239.96C300.004 240.53 299.941 241.193 300.123 241.809L368.015 437.356H373.312L364.69 412.531H418.887L427.509 437.356H432.805L364.327 240.204ZM319.588 282.684H373.796L395.256 344.478H341.054L319.588 282.684ZM363.614 409.428L342.129 347.581H396.346L417.825 409.428H363.614Z" stroke="black" stroke-width="0.769171" stroke-linejoin="round"/>
<path d="M252.562 10.7371C249.245 13.1446 247.854 16.932 249.465 19.1846C251.123 21.4373 255.136 21.2712 258.507 18.8101C261.824 16.4026 263.268 9.12641 263.268 9.12641C263.268 9.12641 255.879 8.2704 252.562 10.7371Z" stroke="black" stroke-width="0.769171" stroke-linejoin="round"/>
<path d="M430.158 71.3542V93.2362" stroke="black" stroke-width="0.769171" stroke-linecap="round" stroke-linejoin="round"/>
<path d="M471.436 259.625L415.333 195.705C419.902 190.468 423.297 184.313 425.289 177.655C427.281 170.996 427.825 163.989 426.883 157.103C425.938 150.217 423.529 143.614 419.819 137.737C416.109 131.86 411.183 126.845 405.373 123.031C396.614 117.285 386.234 114.52 375.777 115.146C365.321 115.771 355.345 119.754 347.333 126.503C342.018 130.982 337.725 136.547 334.74 142.823C323.719 165.995 331.237 197.203 361.919 209.379C369.041 212.086 376.709 213.042 384.277 212.167C391.846 211.292 399.093 208.611 405.41 204.35L461.538 268.284C462.702 269.541 464.311 270.294 466.022 270.384C467.734 270.473 469.412 269.892 470.701 268.763C471.99 267.634 472.788 266.047 472.925 264.339C473.063 262.631 472.528 260.937 471.436 259.616V259.625ZM365.45 203.409C357.36 200.717 350.282 195.627 345.155 188.815C340.028 182.003 337.095 173.792 336.747 165.273C336.399 156.754 338.651 148.331 343.205 141.123C347.759 133.916 354.398 128.264 362.241 124.921C370.084 121.577 378.759 120.699 387.112 122.404C395.466 124.109 403.103 128.316 409.008 134.466C414.913 140.615 418.807 148.416 420.172 156.832C421.537 165.248 420.309 173.88 416.65 181.581C412.24 190.832 404.605 198.155 395.177 202.175C385.749 206.194 375.178 206.633 365.45 203.409Z" stroke="black" stroke-width="0.769171" stroke-linejoin="round"/>
<path d="M441.1 82.2972H419.219" stroke="black" stroke-width="0.769171" stroke-linecap="round" stroke-linejoin="round"/>
<path d="M489.252 405.843C489.513 406.981 489.43 408.17 489.014 409.261C488.598 410.352 487.867 411.295 486.915 411.97C485.962 412.645 484.831 413.022 483.664 413.054C482.497 413.086 481.347 412.77 480.359 412.147C479.37 411.528 478.588 410.628 478.112 409.562C477.635 408.497 477.487 407.314 477.684 406.164C477.882 405.014 478.415 403.948 479.216 403.101C480.018 402.254 481.053 401.663 482.19 401.402C483.714 401.068 485.309 401.346 486.63 402.176C487.951 403.007 488.893 404.324 489.252 405.843Z" stroke="black" stroke-width="0.769171" stroke-linecap="round" stroke-linejoin="round"/>
<path d="M102.064 177.179C102.341 178.393 102.125 179.666 101.462 180.72C100.8 181.775 99.7464 182.522 98.5328 182.799C97.3192 183.076 96.0453 182.86 94.9913 182.198C93.9372 181.536 93.1894 180.482 92.9123 179.268C92.7752 178.667 92.7577 178.045 92.8609 177.438C92.9641 176.83 93.186 176.249 93.5139 175.727C93.8417 175.205 94.2692 174.753 94.7719 174.396C95.2745 174.039 95.8425 173.785 96.4434 173.648C97.0443 173.511 97.6664 173.493 98.274 173.596C98.8817 173.7 99.4631 173.922 99.985 174.249C100.507 174.577 100.959 175.005 101.316 175.507C101.672 176.01 101.927 176.578 102.064 177.179Z" stroke="black" stroke-width="0.769171" stroke-linecap="round" stroke-linejoin="round"/>
<path d="M346.986 377.006H148.61C136.197 377.006 135.234 400.119 135.234 407.181C135.234 414.243 136.197 437.356 148.61 437.356H419.494V428.046H370.028M352.28 377.006H406.586M355.439 386.262H409.661M350.23 386.262H148.832C147.326 387.386 144.543 394.555 144.532 407.181C144.532 419.621 147.244 426.765 148.756 428.046H364.715M411.965 377.006H419.494V386.262H415.152" stroke="black" stroke-width="0.769171" stroke-linecap="round" stroke-linejoin="round"/>
<path d="M395.571 386.262V409.423M395.571 428.047V412.523" stroke="black" stroke-width="0.769171" stroke-linecap="round" stroke-linejoin="round"/>
<path d="M395.571 395.197H358.768M145.721 395.197H353.39" stroke="black" stroke-width="0.769171" stroke-linecap="round" stroke-linejoin="round"/>
<path d="M395.571 420.128H367.356M341.428 420.128H361.981" stroke="black" stroke-width="0.769171" stroke-linecap="round" stroke-linejoin="round"/>
<path d="M395.571 401.884H361.142M193.497 401.884H355.665" stroke="black" stroke-width="0.769171" stroke-linecap="round" stroke-linejoin="round"/>
<path d="M367.038 247.747H413.601V257.003H370.183M361.578 247.747H307.463M364.391 257.003H310.608M305.311 257.003H191.41C189.912 258.127 187.13 265.296 187.13 277.922C187.13 290.548 189.912 297.715 191.41 298.841H319.807M302.003 247.747H191.196C178.784 247.747 177.821 270.86 177.821 277.922C177.821 284.984 178.784 308.097 191.196 308.097H323.057M325.434 298.841H379.425M384.673 298.841H413.601V308.097H388.173M328.556 308.097H382.55" stroke="black" stroke-width="0.769171" stroke-linecap="round" stroke-linejoin="round"/>
<path d="M389.686 257.003V298.841" stroke="black" stroke-width="0.769171" stroke-linecap="round" stroke-linejoin="round"/>
<path d="M389.686 265.938H373.495M188.308 265.938H308.432M368.15 265.938H313.624" stroke="black" stroke-width="0.769171" stroke-linecap="round" stroke-linejoin="round"/>
<path d="M389.686 290.923H381.894M188.308 290.923H317.138M322.483 290.923H376.702" stroke="black" stroke-width="0.769171" stroke-linecap="round" stroke-linejoin="round"/>
<path d="M389.686 272.679H375.866" stroke="black" stroke-width="0.769171" stroke-linecap="round" stroke-linejoin="round"/>
<path d="M184.669 216.343L114.957 427.298C113.459 428.424 105.755 428.796 93.7708 424.837C81.7866 420.877 75.8479 415.955 75.2594 414.19L144.971 203.235L136.197 200.292L66.3782 411.461C62.4726 423.231 84.0871 431.364 90.8283 433.611C97.5694 435.858 119.772 442.171 123.678 430.401L193.497 219.232L184.669 216.343Z" stroke="black" stroke-width="0.769171" stroke-linecap="round" stroke-linejoin="round"/>
<path d="M137.481 225.865L177.179 239.026" stroke="black" stroke-width="0.769171" stroke-linecap="round" stroke-linejoin="round"/>
<path d="M145.934 228.701L132.934 268.131" stroke="black" stroke-width="0.769171" stroke-linecap="round" stroke-linejoin="round"/>
<path d="M169.636 236.512L140.852 323.611" stroke="black" stroke-width="0.769171" stroke-linecap="round" stroke-linejoin="round"/>
<path d="M161.931 234.158L98.479 426.227" stroke="black" stroke-width="0.769171" stroke-linecap="round" stroke-linejoin="round"/>
<path d="M328.543 308.096H382.585M323.114 308.096H214.309V317.352H326.166M331.82 317.352H385.862M391.063 317.352H445.381C446.879 318.422 449.661 329.925 449.661 342.551C449.661 355.177 446.879 366.624 445.381 367.75H408.637M388.011 308.096H445.595C458.007 308.096 458.97 335.489 458.97 342.551C458.97 349.613 458.007 377.006 445.595 377.006H411.712M349.121 367.75H403.256M343.74 367.75H214.309V377.006H347.071M352.365 377.006H406.502" stroke="black" stroke-width="0.769171" stroke-linecap="round" stroke-linejoin="round"/>
<path d="M238.224 367.751V317.352" stroke="black" stroke-width="0.769171" stroke-linecap="round" stroke-linejoin="round"/>
<path d="M238.224 334.365H268.506" stroke="black" stroke-width="0.769171" stroke-linecap="round" stroke-linejoin="round"/>
<path d="M238.224 328.106H330.117M365.129 328.106H335.295" stroke="black" stroke-width="0.769171" stroke-linecap="round" stroke-linejoin="round"/>
<path d="M238.224 358.227H340.496M448.377 358.227H405.305M400.012 358.227H345.79" stroke="black" stroke-width="0.769171" stroke-linecap="round" stroke-linejoin="round"/>
<path d="M1 437.355H536.011" stroke="black" stroke-width="0.769171" stroke-linecap="round" stroke-linejoin="round"/>
<path d="M268.88 146.523L233.035 162.092L245.607 169.047L225.972 204.625L242.611 213.774L262.246 178.196L274.819 185.151L268.88 146.523Z" stroke="black" stroke-width="0.769171" stroke-linecap="round" stroke-linejoin="round"/>
<path d="M218.322 41.9819C226.133 36.2573 228.487 39.4673 236.298 33.7427C244.109 28.0181 241.809 24.8615 249.62 19.1369" stroke="black" stroke-width="0.769171" stroke-linecap="round" stroke-linejoin="round"/>
<path d="M119.666 65.4159L91.0959 27.3766L187.773 1.05402L247.266 80.3962L206.337 91.578" stroke="black" stroke-width="0.769171" stroke-linecap="round" stroke-linejoin="round"/>
<path d="M136.279 71.4275C151.547 82.2705 169.657 88.4017 188.372 89.0632C173.142 78.1458 155.009 72.0068 136.279 71.4275Z" stroke="black" stroke-width="0.769171" stroke-linecap="round" stroke-linejoin="round"/>
<path d="M163.156 76.2065C178.477 81.2919 204.867 95.9175 200.291 109.448C196.817 119.72 174.825 121.539 151.124 113.514C127.423 105.489 111.054 90.7222 114.518 80.45C119.085 66.9818 148.195 71.2393 163.156 76.2065Z" stroke="black" stroke-width="0.769171" stroke-linecap="round" stroke-linejoin="round"/>
<path d="M114.529 80.4495L124.48 51.0238C127.958 40.7516 149.947 38.9326 173.648 46.9577C197.349 54.9829 213.72 69.7492 210.254 80.0214L200.303 109.447" stroke="black" stroke-width="0.769171" stroke-linecap="round" stroke-linejoin="round"/>
<defs>
<clipPath id="clip0_52_4492">
<rect width="82" height="83" fill="white" transform="translate(294.006 21.1777) rotate(30)"/>
</clipPath>
</defs>
</svg>
