<svg width="27" height="27" viewBox="0 0 27 27" fill="none" xmlns="http://www.w3.org/2000/svg">
<path d="M13.5203 0H13.4589C6.02576 0 0 6.02723 0 13.4622V13.5236C0 20.9586 6.02576 26.9858 13.4589 26.9858H13.5203C20.9535 26.9858 26.9792 20.9586 26.9792 13.5236V13.4622C26.9792 6.02723 20.9535 0 13.5203 0Z" fill="#383D38"/>
<path d="M12.4466 13.9954C12.2122 13.7014 11.9438 13.4763 11.6432 13.3241C11.9088 13.1625 12.1375 12.9639 12.3266 12.7276C12.6451 12.3286 12.8067 11.8284 12.8067 11.2404C12.8067 10.7497 12.6773 10.2987 12.4211 9.90067C12.1659 9.50264 11.7859 9.18308 11.2916 8.9505C10.8076 8.72264 10.2244 8.6073 9.55994 8.6073H5.78003V18.3709H9.73386C10.3813 18.3709 10.9598 18.2527 11.4523 18.0202C11.9542 17.7838 12.3455 17.4529 12.6139 17.0378C12.8833 16.6209 13.0204 16.1472 13.0204 15.6301C13.0204 15.024 12.8275 14.4747 12.4466 13.9963V13.9954ZM10.439 12.2161C10.2055 12.4052 9.8643 12.5016 9.42666 12.5016H7.79144V10.3384H9.42666C9.86241 10.3384 10.2017 10.4377 10.4352 10.6343C10.6592 10.8225 10.7679 11.0825 10.7679 11.4266C10.7679 11.7708 10.6602 12.0374 10.439 12.2161ZM7.79144 14.2336H9.54671C10.0061 14.2336 10.3596 14.3452 10.6271 14.5749C10.8832 14.7952 11.008 15.0874 11.008 15.4693C11.008 15.8513 10.8927 16.1207 10.6545 16.3221C10.4078 16.5311 10.0533 16.637 9.59964 16.637H7.79144V14.2336Z" fill="white"/>
<path d="M20.7414 12.3544C20.4371 11.8042 20.0061 11.3702 19.4597 11.0658C18.9143 10.7614 18.2839 10.6072 17.5882 10.6072C16.8925 10.6072 16.2148 10.7661 15.6562 11.079C15.0966 11.3929 14.6562 11.8439 14.348 12.4216C14.0399 12.9983 13.8839 13.6752 13.8839 14.4335C13.8839 15.1917 14.0446 15.8696 14.3622 16.4454C14.6798 17.0221 15.124 17.4759 15.6836 17.7936C16.2422 18.1112 16.8831 18.272 17.5891 18.272C18.4559 18.272 19.1922 18.0517 19.7783 17.6177C20.3643 17.1838 20.7745 16.6184 20.9985 15.9386L21.0146 15.8904H19.3L19.2896 15.9112C18.9597 16.5796 18.3879 16.9181 17.5882 16.9181C17.0315 16.9181 16.5551 16.7413 16.1723 16.3943C15.7989 16.0549 15.5844 15.6011 15.5343 15.0442H21.1413L21.146 15.013C21.1819 14.789 21.1999 14.5356 21.1999 14.2604C21.1999 13.5457 21.0458 12.9047 20.7414 12.3544ZM16.1987 12.4527C16.5636 12.1266 17.0088 11.9621 17.5211 11.9621C18.0873 11.9621 18.5684 12.1294 18.9512 12.4603C19.3236 12.7818 19.5212 13.2138 19.5382 13.7433H15.5503C15.6259 13.2053 15.8443 12.7714 16.1997 12.4537L16.1987 12.4527Z" fill="white"/>
<path d="M19.4085 8.82404H15.674V9.70897H19.4085V8.82404Z" fill="white"/>
</svg>
