<svg width="50" height="50" viewBox="0 0 50 50" fill="none" xmlns="http://www.w3.org/2000/svg">
<path d="M12 37.375V12.625C12 11.531 12.428 10.4818 13.1899 9.70818C13.9517 8.9346 14.9851 8.5 16.0625 8.5H36.375C36.806 8.5 37.2193 8.67384 37.524 8.98327C37.8288 9.29271 38 9.71239 38 10.15V39.85C38 40.2876 37.8288 40.7073 37.524 41.0167C37.2193 41.3262 36.806 41.5 36.375 41.5H16.0625C14.9851 41.5 13.9517 41.0654 13.1899 40.2918C12.428 39.5182 12 38.469 12 37.375C12 36.281 12.428 35.2318 13.1899 34.4582C13.9517 33.6846 14.9851 33.25 16.0625 33.25H38" fill="white"/>
<path d="M12 37.375V12.625C12 11.531 12.428 10.4818 13.1899 9.70818C13.9517 8.9346 14.9851 8.5 16.0625 8.5H36.375C36.806 8.5 37.2193 8.67384 37.524 8.98327C37.8288 9.29271 38 9.71239 38 10.15V39.85C38 40.2876 37.8288 40.7073 37.524 41.0167C37.2193 41.3262 36.806 41.5 36.375 41.5H16.0625C14.9851 41.5 13.9517 41.0654 13.1899 40.2918C12.428 39.5182 12 38.469 12 37.375ZM12 37.375C12 36.281 12.428 35.2318 13.1899 34.4582C13.9517 33.6846 14.9851 33.25 16.0625 33.25H38" stroke="black" stroke-width="2.66667" stroke-linecap="round" stroke-linejoin="round"/>
</svg>
