<svg width="27" height="27" viewBox="0 0 27 27" fill="none" xmlns="http://www.w3.org/2000/svg">
<path d="M26.9783 13.4934C26.9783 20.3082 21.928 25.9421 15.3673 26.8563C14.7538 26.9414 14.1262 26.9858 13.4891 26.9858C12.7538 26.9858 12.0316 26.9272 11.3284 26.8138C4.90566 25.7794 0 20.2089 0 13.4934C0 6.04139 6.03992 0 13.4901 0C20.9403 0 26.9802 6.04139 26.9802 13.4934H26.9783Z" fill="#383D38"/>
<path d="M15.367 10.8393V13.7787H19.0023L18.4267 17.7382H15.367V26.8608C14.7536 26.9459 14.126 26.9903 13.4889 26.9903C12.7535 26.9903 12.0314 26.9317 11.3281 26.8182V17.7382H7.97546V13.7787H11.3281V10.1822C11.3281 7.95094 13.1363 6.14136 15.368 6.14136V6.14325C15.3746 6.14325 15.3803 6.14136 15.3869 6.14136H19.0033V9.56576H16.6402C15.9379 9.56576 15.368 10.1359 15.368 10.8383L15.367 10.8393Z" fill="white"/>
</svg>
