<svg width="50" height="50" viewBox="0 0 50 50" fill="none" xmlns="http://www.w3.org/2000/svg">
<path d="M12.5 26.042V33.3337C12.5 34.9913 13.817 36.581 16.1612 37.7531C18.5054 38.9252 21.6848 39.5837 25 39.5837C28.3152 39.5837 31.4946 38.9252 33.8388 37.7531C36.183 36.581 37.5 34.9913 37.5 33.3337V26.042" fill="white"/>
<path d="M12.5 26.042V33.3337C12.5 34.9913 13.817 36.581 16.1612 37.7531C18.5054 38.9252 21.6848 39.5837 25 39.5837C28.3152 39.5837 31.4946 38.9252 33.8388 37.7531C36.183 36.581 37.5 34.9913 37.5 33.3337V26.042" stroke="black" stroke-width="2.66667" stroke-linecap="round" stroke-linejoin="round"/>
<path d="M44.625 22.7541C44.998 22.5896 45.3145 22.3193 45.5353 21.9766C45.7561 21.634 45.8716 21.2341 45.8674 20.8265C45.8631 20.4189 45.7394 20.0215 45.5116 19.6835C45.2837 19.3455 44.9617 19.0818 44.5854 18.925L26.7292 10.7916C26.1863 10.544 25.5967 10.4159 25 10.4159C24.4034 10.4159 23.8137 10.544 23.2708 10.7916L5.41667 18.9166C5.04577 19.0791 4.73025 19.3461 4.50869 19.685C4.28712 20.0239 4.16913 20.4201 4.16913 20.825C4.16913 21.2299 4.28712 21.626 4.50869 21.9649C4.73025 22.3039 5.04577 22.5709 5.41667 22.7333L23.2708 30.875C23.8137 31.1226 24.4034 31.2507 25 31.2507C25.5967 31.2507 26.1863 31.1226 26.7292 30.875L44.625 22.7541Z" fill="white" stroke="black" stroke-width="2.66667" stroke-linecap="round" stroke-linejoin="round"/>
<path d="M45.8333 20.8334V33.3334" stroke="black" stroke-width="2.66667" stroke-linecap="round" stroke-linejoin="round"/>
</svg>
