<svg width="27" height="27" viewBox="0 0 27 27" fill="none" xmlns="http://www.w3.org/2000/svg">
<path d="M13.5203 0H13.4589C6.02576 0 0 6.02723 0 13.4622V13.5236C0 20.9586 6.02576 26.9858 13.4589 26.9858H13.5203C20.9535 26.9858 26.9792 20.9586 26.9792 13.5236V13.4622C26.9792 6.02723 20.9535 0 13.5203 0Z" fill="#383D38"/>
<path d="M17.6642 5.48932H9.31612C7.00979 5.48932 5.13354 7.36603 5.13354 9.67291V17.3121C5.13354 19.619 7.00979 21.4957 9.31612 21.4957H17.6642C19.9706 21.4957 21.8468 19.619 21.8468 17.3121V9.67291C21.8468 7.36603 19.9706 5.48932 17.6642 5.48932ZM6.60903 9.67291C6.60903 8.18005 7.82362 6.96516 9.31612 6.96516H17.6642C19.1567 6.96516 20.3713 8.18005 20.3713 9.67291V17.3121C20.3713 18.805 19.1567 20.0199 17.6642 20.0199H9.31612C7.82362 20.0199 6.60903 18.805 6.60903 17.3121V9.67291Z" fill="white"/>
<path d="M13.4905 17.3788C15.6352 17.3788 17.381 15.6335 17.381 13.4873C17.381 11.3412 15.6361 9.59589 13.4905 9.59589C11.3448 9.59589 9.59998 11.3412 9.59998 13.4873C9.59998 15.6335 11.3448 17.3788 13.4905 17.3788ZM13.4905 11.0727C14.8223 11.0727 15.9055 12.1561 15.9055 13.4883C15.9055 14.8204 14.8223 15.9039 13.4905 15.9039C12.1587 15.9039 11.0755 14.8204 11.0755 13.4883C11.0755 12.1561 12.1587 11.0727 13.4905 11.0727Z" fill="white"/>
<path d="M17.7407 10.2239C18.3183 10.2239 18.789 9.754 18.789 9.17539C18.789 8.59678 18.3192 8.12689 17.7407 8.12689C17.1623 8.12689 16.6925 8.59678 16.6925 9.17539C16.6925 9.754 17.1623 10.2239 17.7407 10.2239Z" fill="white"/>
</svg>
