<svg width="103" height="33" viewBox="0 0 103 33" fill="none" xmlns="http://www.w3.org/2000/svg">
<g clip-path="url(#clip0_52_2516)">
<path d="M5.39876 11.1062C8.38041 11.1062 10.7975 8.69107 10.7975 5.71181C10.7975 2.73255 8.38041 0.317383 5.39876 0.317383C2.41711 0.317383 0 2.73255 0 5.71181C0 8.69107 2.41711 11.1062 5.39876 11.1062Z" fill="#FF00A6"/>
<path d="M25.8917 11.1062C28.8734 11.1062 31.2905 8.69107 31.2905 5.71181C31.2905 2.73255 28.8734 0.317383 25.8917 0.317383C22.9101 0.317383 20.493 2.73255 20.493 5.71181C20.493 8.69107 22.9101 11.1062 25.8917 11.1062Z" fill="#1DD5C2"/>
<path d="M25.8917 32.0242C28.8734 32.0242 31.2905 29.609 31.2905 26.6298C31.2905 23.6505 28.8734 21.2354 25.8917 21.2354C22.9101 21.2354 20.493 23.6505 20.493 26.6298C20.493 29.609 22.9101 32.0242 25.8917 32.0242Z" fill="#F5861A"/>
<path d="M18.3982 21.5495H0L10.4696 11.1084H18.3982C19.8014 11.1084 20.9391 12.2452 20.9391 13.6473V19.0106C20.9391 20.4127 19.8014 21.5495 18.3982 21.5495Z" fill="#1B36F6"/>
<path d="M10.7239 21.5498H0V32.0266H10.7239V21.5498Z" fill="#05318E"/>
<path d="M102.926 22.6741C102.926 23.4614 102.745 24.184 102.384 24.8422C102.022 25.4875 101.467 26.0101 100.719 26.4102C99.9705 26.8102 99.0413 27.0103 97.9315 27.0103H95.8796V31.8884H92.5694V18.2993H97.9315C99.0155 18.2993 99.9318 18.4864 100.68 18.8607C101.429 19.2349 101.99 19.7511 102.364 20.4093C102.739 21.0675 102.926 21.8224 102.926 22.6741ZM97.6798 24.3776C98.3122 24.3776 98.7832 24.2292 99.0929 23.9324C99.4026 23.6356 99.5575 23.2162 99.5575 22.6741C99.5575 22.1321 99.4026 21.7127 99.0929 21.4159C98.7832 21.1191 98.3122 20.9707 97.6798 20.9707H95.8796V24.3776H97.6798Z" fill="#000E52"/>
<path d="M82.1728 18.2993V26.4295C82.1728 27.2425 82.3729 27.8684 82.7729 28.3072C83.173 28.746 83.7602 28.9654 84.5345 28.9654C85.3088 28.9654 85.9024 28.746 86.3154 28.3072C86.7283 27.8684 86.9348 27.2425 86.9348 26.4295V18.2993H90.245V26.4102C90.245 27.6233 89.9869 28.6492 89.4707 29.488C88.9545 30.3269 88.2576 30.9592 87.38 31.3851C86.5154 31.811 85.5475 32.0239 84.4764 32.0239C83.4053 32.0239 82.4438 31.8174 81.5921 31.4044C80.7533 30.9786 80.0887 30.3462 79.5983 29.5074C79.1079 28.6557 78.8627 27.6233 78.8627 26.4102V18.2993H82.1728Z" fill="#000E52"/>
<path d="M70.1298 32.0241C68.8522 32.0241 67.6778 31.7273 66.6067 31.1336C65.5485 30.54 64.7032 29.7141 64.0708 28.6559C63.4514 27.5848 63.1417 26.3846 63.1417 25.0554C63.1417 23.7261 63.4514 22.5324 64.0708 21.4742C64.7032 20.416 65.5485 19.59 66.6067 18.9964C67.6778 18.4028 68.8522 18.106 70.1298 18.106C71.4074 18.106 72.5753 18.4028 73.6335 18.9964C74.7046 19.59 75.5435 20.416 76.15 21.4742C76.7694 22.5324 77.0792 23.7261 77.0792 25.0554C77.0792 26.3846 76.7694 27.5848 76.15 28.6559C75.5306 29.7141 74.6917 30.54 73.6335 31.1336C72.5753 31.7273 71.4074 32.0241 70.1298 32.0241ZM70.1298 29.0043C71.2138 29.0043 72.0784 28.643 72.7237 27.9203C73.3819 27.1976 73.7109 26.2426 73.7109 25.0554C73.7109 23.8552 73.3819 22.9002 72.7237 22.1904C72.0784 21.4677 71.2138 21.1064 70.1298 21.1064C69.0328 21.1064 68.1553 21.4613 67.4971 22.1711C66.8519 22.8808 66.5292 23.8423 66.5292 25.0554C66.5292 26.2555 66.8519 27.217 67.4971 27.9396C68.1553 28.6494 69.0328 29.0043 70.1298 29.0043Z" fill="#000E52"/>
<path d="M58.0052 31.8884L55.179 26.7586H54.3854V31.8884H51.0752V18.2993H56.6308C57.702 18.2993 58.6118 18.4864 59.3603 18.8607C60.1217 19.2349 60.6895 19.7511 61.0637 20.4093C61.438 21.0546 61.6251 21.7772 61.6251 22.5774C61.6251 23.4807 61.367 24.2873 60.8508 24.9971C60.3475 25.7068 59.599 26.2101 58.6053 26.507L61.7413 31.8884H58.0052ZM54.3854 24.4163H56.4373C57.0438 24.4163 57.4955 24.2679 57.7923 23.9711C58.102 23.6743 58.2569 23.2549 58.2569 22.7129C58.2569 22.1967 58.102 21.7901 57.7923 21.4933C57.4955 21.1965 57.0438 21.0481 56.4373 21.0481H54.3854V24.4163Z" fill="#000E52"/>
<path d="M45.3508 22.5968C45.1056 22.1451 44.7507 21.8031 44.2862 21.5708C43.8345 21.3256 43.2989 21.203 42.6795 21.203C41.6084 21.203 40.7502 21.5579 40.1049 22.2677C39.4597 22.9646 39.137 23.9002 39.137 25.0746C39.137 26.3264 39.4726 27.3071 40.1436 28.0169C40.8276 28.7138 41.7632 29.0622 42.9505 29.0622C43.7635 29.0622 44.4475 28.8558 45.0024 28.4428C45.5702 28.0298 45.9832 27.4362 46.2413 26.6619H42.0407V24.2228H49.2417V27.3007C48.9965 28.1266 48.5771 28.8945 47.9835 29.6043C47.4027 30.314 46.6607 30.8883 45.7573 31.3271C44.854 31.7659 43.8345 31.9852 42.6988 31.9852C41.3567 31.9852 40.1565 31.6949 39.0983 31.1142C38.053 30.5205 37.2335 29.701 36.6399 28.6557C36.0592 27.6104 35.7688 26.4167 35.7688 25.0746C35.7688 23.7324 36.0592 22.5387 36.6399 21.4934C37.2335 20.4352 38.053 19.6157 39.0983 19.035C40.1436 18.4413 41.3373 18.1445 42.6795 18.1445C44.3055 18.1445 45.6735 18.5381 46.7833 19.3253C47.906 20.1126 48.6481 21.203 49.0094 22.5968H45.3508Z" fill="#000E52"/>
<path d="M76.9526 7.24986C76.9526 5.90773 77.243 4.71401 77.8237 3.6687C78.4045 2.61048 79.211 1.79101 80.2434 1.21028C81.2887 0.616642 82.4696 0.319824 83.7859 0.319824C85.399 0.319824 86.7799 0.745693 87.9284 1.59743C89.077 2.44917 89.8448 3.61062 90.232 5.08181H86.5927C86.3217 4.51398 85.9346 4.08166 85.4313 3.78484C84.9409 3.48803 84.3795 3.33962 83.7472 3.33962C82.7277 3.33962 81.9017 3.69451 81.2694 4.40429C80.637 5.11407 80.3209 6.06259 80.3209 7.24986C80.3209 8.43713 80.637 9.38566 81.2694 10.0954C81.9017 10.8052 82.7277 11.1601 83.7472 11.1601C84.3795 11.1601 84.9409 11.0117 85.4313 10.7149C85.9346 10.4181 86.3217 9.98574 86.5927 9.41792H90.232C89.8448 10.8891 89.077 12.0506 87.9284 12.9023C86.7799 13.7411 85.399 14.1605 83.7859 14.1605C82.4696 14.1605 81.2887 13.8702 80.2434 13.2894C79.211 12.6958 78.4045 11.8763 77.8237 10.831C77.243 9.78571 76.9526 8.59199 76.9526 7.24986Z" fill="#000E52"/>
<path d="M72.0001 14.0637L69.232 9.90178L66.7929 14.0637H63.0375L67.393 7.153L62.9407 0.474609H66.7929L69.5223 4.57843L71.9227 0.474609H75.6781L71.3613 7.32722L75.8523 14.0637H72.0001Z" fill="#000E52"/>
<path d="M56.5137 3.12661V5.87539H60.9466V8.4306H56.5137V11.4117H61.5273V14.0637H53.2036V0.474609H61.5273V3.12661H56.5137Z" fill="#000E52"/>
<path d="M51.5423 0.474609V3.12661H47.9418V14.0637H44.6316V3.12661H41.0311V0.474609H51.5423Z" fill="#000E52"/>
<path d="M39.3678 0.474609V14.0637H36.0577V0.474609H39.3678Z" fill="#000E52"/>
<path d="M93.9275 3.41076C94.6613 3.41076 95.2562 2.81589 95.2562 2.08209C95.2562 1.34828 94.6613 0.753418 93.9275 0.753418C93.1937 0.753418 92.5989 1.34828 92.5989 2.08209C92.5989 2.81589 93.1937 3.41076 93.9275 3.41076Z" fill="#1DD5C2"/>
<path d="M93.9275 8.43273C94.6613 8.43273 95.2562 7.83787 95.2562 7.10406C95.2562 6.37026 94.6613 5.77539 93.9275 5.77539C93.1937 5.77539 92.5989 6.37026 92.5989 7.10406C92.5989 7.83787 93.1937 8.43273 93.9275 8.43273Z" fill="#F5861A"/>
<path d="M93.9275 13.4552C94.6613 13.4552 95.2562 12.8603 95.2562 12.1265C95.2562 11.3927 94.6613 10.7979 93.9275 10.7979C93.1937 10.7979 92.5989 11.3927 92.5989 12.1265C92.5989 12.8603 93.1937 13.4552 93.9275 13.4552Z" fill="#FF00A6"/>
</g>
<defs>
<clipPath id="clip0_52_2516">
<rect width="103" height="31.709" fill="white" transform="translate(0 0.317383)"/>
</clipPath>
</defs>
</svg>
