<svg width="27" height="27" viewBox="0 0 27 27" fill="none" xmlns="http://www.w3.org/2000/svg">
<path d="M13.5203 0H13.4589C6.02577 0 0 6.02723 0 13.4622V13.5236C0 20.9586 6.02577 26.9858 13.4589 26.9858H13.5203C20.9535 26.9858 26.9792 20.9586 26.9792 13.5236V13.4622C26.9792 6.02723 20.9535 0 13.5203 0Z" fill="#383D38"/>
<path d="M6.43424 8.96882C6.07884 8.63886 5.9021 8.23043 5.9021 7.74447C5.9021 7.25851 6.07979 6.83212 6.43424 6.50121C6.78964 6.17125 7.24713 6.0058 7.80764 6.0058C8.36815 6.0058 8.80768 6.17125 9.16214 6.50121C9.51754 6.83117 9.69428 7.24622 9.69428 7.74447C9.69428 8.24272 9.51659 8.63886 9.16214 8.96882C8.80674 9.29878 8.35587 9.46423 7.80764 9.46423C7.25942 9.46423 6.78964 9.29878 6.43424 8.96882ZM9.3956 10.8616V20.9779H6.19983V10.8616H9.3956Z" fill="#FEFFFC"/>
<path d="M20.034 11.861C20.7306 12.6173 21.0785 13.6554 21.0785 14.9772V20.7992H18.0434V15.3875C18.0434 14.7209 17.8704 14.2028 17.5254 13.8341C17.1804 13.4654 16.7154 13.2801 16.1331 13.2801C15.5509 13.2801 15.0858 13.4644 14.7408 13.8341C14.3958 14.2028 14.2228 14.7209 14.2228 15.3875V20.7992H11.1698V10.8333H14.2228V12.155C14.5319 11.7144 14.9488 11.3665 15.4724 11.1103C15.9961 10.8541 16.5849 10.7264 17.24 10.7264C18.4064 10.7264 19.3383 11.1046 20.034 11.86V11.861Z" fill="#FEFFFC"/>
</svg>
