<svg width="531" height="538" viewBox="0 0 531 538" fill="none" xmlns="http://www.w3.org/2000/svg">
<g clip-path="url(#clip0_2_10)">
<path d="M91.49 182.98C142.019 182.98 182.98 142.019 182.98 91.49C182.98 40.9615 142.019 0 91.49 0C40.9615 0 0 40.9615 0 91.49C0 142.019 40.9615 182.98 91.49 182.98Z" fill="white"/>
<path d="M438.73 182.98C489.259 182.98 530.22 142.019 530.22 91.49C530.22 40.9615 489.259 0 438.73 0C388.201 0 347.24 40.9615 347.24 91.49C347.24 142.019 388.201 182.98 438.73 182.98Z" fill="white"/>
<path d="M438.73 537.7C489.259 537.7 530.22 496.739 530.22 446.21C530.22 395.681 489.259 354.72 438.73 354.72C388.201 354.72 347.24 395.681 347.24 446.21C347.24 496.739 388.201 537.7 438.73 537.7Z" fill="white"/>
<path d="M311.73 360.03H0L177.39 182.98H311.73C335.51 182.98 354.78 202.26 354.78 226.03V316.97C354.78 340.75 335.5 360.02 311.73 360.02V360.03Z" fill="white"/>
<path d="M181.7 360.03H0V537.7H181.7V360.03Z" fill="white" fill-opacity="0.5"/>
</g>
<defs>
<clipPath id="clip0_2_10">
<rect width="530.22" height="537.7" fill="white"/>
</clipPath>
</defs>
</svg>
