<svg width="27" height="27" viewBox="0 0 27 27" fill="none" xmlns="http://www.w3.org/2000/svg">
<path d="M13.5203 0H13.4589C6.02576 0 0 6.02723 0 13.4622V13.5236C0 20.9586 6.02576 26.9858 13.4589 26.9858H13.5203C20.9535 26.9858 26.9792 20.9586 26.9792 13.5236V13.4622C26.9792 6.02723 20.9535 0 13.5203 0Z" fill="#383D38"/>
<path d="M16.1187 17.4386C12.6658 17.4386 9.85666 14.6278 9.85571 11.1741C9.85666 10.2987 10.5694 9.58673 11.4427 9.58673C11.5325 9.58673 11.6214 9.59429 11.7064 9.60942C11.8936 9.64062 12.0713 9.70397 12.2348 9.79946C12.2585 9.81364 12.2745 9.83633 12.2783 9.8628L12.6431 12.1631C12.6479 12.1895 12.6394 12.217 12.6214 12.2368C12.4201 12.4599 12.163 12.6207 11.8766 12.701L11.7386 12.7398L11.7906 12.8731C12.2613 14.0719 13.2197 15.0297 14.4192 15.5024L14.5525 15.5553L14.5912 15.4173C14.6716 15.1308 14.8323 14.8737 15.0553 14.6723C15.0714 14.6572 15.0931 14.6496 15.1149 14.6496C15.1196 14.6496 15.1243 14.6496 15.13 14.6505L17.4297 15.0155C17.4571 15.0202 17.4798 15.0353 17.494 15.059C17.5885 15.2225 17.6518 15.4012 17.684 15.5884C17.6991 15.6716 17.7057 15.7595 17.7057 15.8512C17.7057 16.7258 16.994 17.4377 16.1187 17.4386Z" fill="#FDFDFD"/>
<path d="M22.2422 12.7316C22.056 10.627 21.0919 8.67469 19.5276 7.23478C17.9538 5.78636 15.9121 4.9884 13.7769 4.9884C9.0905 4.9884 5.27752 8.80232 5.27752 13.4898C5.27752 15.0631 5.71136 16.5956 6.53275 17.9306L4.70093 21.9865L10.566 21.3616C11.5859 21.7795 12.6653 21.9913 13.7759 21.9913C14.068 21.9913 14.3676 21.9761 14.6682 21.9449C14.9329 21.9166 15.2004 21.875 15.4631 21.822C19.3877 21.0288 22.2526 17.5449 22.2753 13.5352V13.4898C22.2753 13.2346 22.264 12.9793 22.2413 12.7325L22.2422 12.7316ZM10.7919 19.5813L7.54698 19.9274L8.51582 17.7803L8.32205 17.5203C8.30787 17.5014 8.29369 17.4824 8.27763 17.4607C7.43638 16.2988 6.99213 14.926 6.99213 13.4908C6.99213 9.74872 10.0357 6.70439 13.7769 6.70439C17.2817 6.70439 20.2525 9.43956 20.5389 12.9311C20.5541 13.1183 20.5626 13.3064 20.5626 13.4917C20.5626 13.5447 20.5616 13.5967 20.5607 13.6525C20.4888 16.7828 18.3026 19.4414 15.2438 20.1184C15.0104 20.1704 14.7712 20.2101 14.533 20.2356C14.2854 20.264 14.0311 20.2781 13.7788 20.2781C12.8799 20.2781 12.0065 20.1042 11.1813 19.76C11.0896 19.7232 10.9998 19.6834 10.9157 19.6428L10.7928 19.5832L10.7919 19.5813Z" fill="#FDFDFD"/>
</svg>
