<svg width="27" height="27" viewBox="0 0 27 27" fill="none" xmlns="http://www.w3.org/2000/svg">
<path d="M26.9783 13.4934C26.9783 20.3082 21.928 25.9421 15.3673 26.8563C14.7538 26.9414 14.1262 26.9858 13.4891 26.9858C12.7538 26.9858 12.0316 26.9272 11.3284 26.8138C4.90566 25.7794 0 20.2089 0 13.4934C0 6.04139 6.03991 0 13.4901 0C20.9403 0 26.9802 6.04139 26.9802 13.4934H26.9783Z" fill="#383D38"/>
<path d="M5.4704 5.95312L11.6918 14.273L5.43164 21.0377H6.84096L12.3223 15.1154L16.7506 21.0377H21.5456L14.9745 12.2498L20.8018 5.95312H19.3924L14.345 11.4074L10.2664 5.95312H5.47133H5.4704ZM7.5423 6.99122H9.74465L19.4718 19.9996H17.2695L7.5423 6.99122Z" fill="white"/>
</svg>
